<mxfile host="65bd71144e" pages="2">
    <diagram id="dXKGdj3O9QanKZl_5-nY" name="Page-1">
        <mxGraphModel dx="565" dy="348" grid="1" gridSize="10" guides="1" tooltips="1" connect="1" arrows="1" fold="1" page="1" pageScale="1" pageWidth="850" pageHeight="1100" math="0" shadow="0">
            <root>
                <mxCell id="0"/>
                <mxCell id="1" parent="0"/>
                <mxCell id="fk55G9-FkgXI1mSPpwoW-1" value="" style="rounded=0;whiteSpace=wrap;html=1;fillColor=#dae8fc;strokeColor=#6c8ebf;" parent="1" vertex="1">
                    <mxGeometry x="40" y="30" width="760" height="530" as="geometry"/>
                </mxCell>
                <mxCell id="fk55G9-FkgXI1mSPpwoW-2" value="" style="endArrow=none;html=1;rounded=0;entryX=0.304;entryY=0.001;entryDx=0;entryDy=0;entryPerimeter=0;exitX=0.302;exitY=1;exitDx=0;exitDy=0;exitPerimeter=0;fillColor=#f5f5f5;strokeColor=#666666;" parent="1" source="fk55G9-FkgXI1mSPpwoW-1" target="fk55G9-FkgXI1mSPpwoW-1" edge="1">
                    <mxGeometry width="50" height="50" relative="1" as="geometry">
                        <mxPoint x="400" y="310" as="sourcePoint"/>
                        <mxPoint x="450" y="260" as="targetPoint"/>
                    </mxGeometry>
                </mxCell>
                <mxCell id="fk55G9-FkgXI1mSPpwoW-3" value="&lt;font color=&quot;#000000&quot;&gt;Add &lt;br&gt;Button&lt;/font&gt;" style="rounded=1;whiteSpace=wrap;html=1;fillColor=#e1d5e7;strokeColor=#9673a6;" parent="1" vertex="1">
                    <mxGeometry x="700" y="50" width="70" height="40" as="geometry"/>
                </mxCell>
                <mxCell id="fk55G9-FkgXI1mSPpwoW-4" value="&lt;font color=&quot;#000000&quot;&gt;Notes search bar..&lt;/font&gt;" style="rounded=1;whiteSpace=wrap;html=1;fillColor=#d5e8d4;strokeColor=#82b366;" parent="1" vertex="1">
                    <mxGeometry x="60" y="60" width="190" height="30" as="geometry"/>
                </mxCell>
                <mxCell id="fk55G9-FkgXI1mSPpwoW-6" value="" style="rounded=0;whiteSpace=wrap;html=1;fillColor=#f5f5f5;strokeColor=#666666;fontColor=#333333;" parent="1" vertex="1">
                    <mxGeometry x="60" y="130" width="190" height="110" as="geometry"/>
                </mxCell>
                <mxCell id="fk55G9-FkgXI1mSPpwoW-7" value="&lt;b&gt;&lt;font style=&quot;font-size: 20px&quot; color=&quot;#000000&quot;&gt;Add Notes Title...&lt;/font&gt;&lt;/b&gt;" style="rounded=1;whiteSpace=wrap;html=1;fillColor=#d5e8d4;strokeColor=#82b366;" parent="1" vertex="1">
                    <mxGeometry x="300" y="110" width="470" height="60" as="geometry"/>
                </mxCell>
                <mxCell id="fk55G9-FkgXI1mSPpwoW-11" value="&lt;b&gt;&lt;font style=&quot;font-size: 25px&quot; color=&quot;#000000&quot;&gt;textarea....&lt;/font&gt;&lt;/b&gt;" style="rounded=1;whiteSpace=wrap;html=1;fillColor=#d5e8d4;strokeColor=#82b366;" parent="1" vertex="1">
                    <mxGeometry x="300" y="200" width="470" height="330" as="geometry"/>
                </mxCell>
                <mxCell id="fk55G9-FkgXI1mSPpwoW-12" value="&lt;b&gt;Title&lt;/b&gt;" style="rounded=0;whiteSpace=wrap;html=1;fillColor=#f5f5f5;strokeColor=#666666;fontColor=#333333;" parent="1" vertex="1">
                    <mxGeometry x="70" y="140" width="120" height="20" as="geometry"/>
                </mxCell>
                <mxCell id="fk55G9-FkgXI1mSPpwoW-13" value="Show notes text..." style="rounded=0;whiteSpace=wrap;html=1;fillColor=#f5f5f5;strokeColor=#666666;fontColor=#333333;" parent="1" vertex="1">
                    <mxGeometry x="70" y="170" width="170" height="40" as="geometry"/>
                </mxCell>
                <mxCell id="fk55G9-FkgXI1mSPpwoW-14" value="Show Date" style="rounded=0;whiteSpace=wrap;html=1;fillColor=#f5f5f5;strokeColor=#666666;fontColor=#333333;" parent="1" vertex="1">
                    <mxGeometry x="150" y="220" width="90" height="15" as="geometry"/>
                </mxCell>
                <mxCell id="K8V55S-lqn8vu2vQLkye-17" value="&lt;b&gt;&lt;font style=&quot;font-size: 30px&quot; color=&quot;#000000&quot;&gt;Note Keep&lt;/font&gt;&lt;/b&gt;" style="text;html=1;strokeColor=none;fillColor=none;align=center;verticalAlign=middle;whiteSpace=wrap;rounded=0;" parent="1" vertex="1">
                    <mxGeometry x="365" y="50" width="175" height="36" as="geometry"/>
                </mxCell>
                <mxCell id="K8V55S-lqn8vu2vQLkye-21" value="" style="html=1;verticalLabelPosition=bottom;align=center;labelBackgroundColor=#ffffff;verticalAlign=top;strokeWidth=2;strokeColor=#0080F0;shadow=0;dashed=0;shape=mxgraph.ios7.icons.looking_glass;fontSize=30;fillColor=#FFFFFF;" parent="1" vertex="1">
                    <mxGeometry x="70" y="70" width="10" height="12" as="geometry"/>
                </mxCell>
                <mxCell id="K8V55S-lqn8vu2vQLkye-25" value="" style="shape=image;html=1;verticalAlign=top;verticalLabelPosition=bottom;labelBackgroundColor=#ffffff;imageAspect=0;aspect=fixed;image=https://cdn4.iconfinder.com/data/icons/ios-web-user-interface-multi-circle-flat-vol-3/512/Book_contacts_library_notebook_bookmark_business_phone_book-128.png;fontSize=30;" parent="1" vertex="1">
                    <mxGeometry x="300" y="45" width="48" height="48" as="geometry"/>
                </mxCell>
                <mxCell id="K8V55S-lqn8vu2vQLkye-27" value="" style="shape=image;html=1;verticalAlign=top;verticalLabelPosition=bottom;labelBackgroundColor=#ffffff;imageAspect=0;aspect=fixed;image=https://cdn4.iconfinder.com/data/icons/ionicons/512/icon-ios7-moon-128.png;fontSize=30;" parent="1" vertex="1">
                    <mxGeometry x="640" y="41" width="54" height="53" as="geometry"/>
                </mxCell>
                <mxCell id="K8V55S-lqn8vu2vQLkye-28" value="" style="shape=image;html=1;verticalAlign=top;verticalLabelPosition=bottom;labelBackgroundColor=#ffffff;imageAspect=0;aspect=fixed;image=https://cdn4.iconfinder.com/data/icons/evil-icons-user-interface/64/plus-128.png;fontSize=30;" parent="1" vertex="1">
                    <mxGeometry x="701" y="50" width="18" height="18" as="geometry"/>
                </mxCell>
                <mxCell id="K8V55S-lqn8vu2vQLkye-30" value="" style="dashed=0;aspect=fixed;verticalLabelPosition=bottom;verticalAlign=top;align=center;shape=mxgraph.gmdl.edit;strokeColor=none;fillColor=#737373;shadow=0;sketch=0;fontSize=30;" parent="1" vertex="1">
                    <mxGeometry x="214" y="132" width="14" height="14" as="geometry"/>
                </mxCell>
                <mxCell id="K8V55S-lqn8vu2vQLkye-31" value="" style="verticalLabelPosition=bottom;verticalAlign=top;html=1;shadow=0;dashed=0;strokeWidth=1;shape=mxgraph.ios.iDeleteIcon;fillColor=#e8878E;fillColor2=#BD1421;strokeColor=#ffffff;sketch=0;fontSize=30;" parent="1" vertex="1">
                    <mxGeometry x="230" y="132" width="15" height="15" as="geometry"/>
                </mxCell>
                <mxCell id="K8V55S-lqn8vu2vQLkye-32" value="" style="rounded=0;whiteSpace=wrap;html=1;fillColor=#f5f5f5;strokeColor=#666666;fontColor=#333333;" parent="1" vertex="1">
                    <mxGeometry x="60" y="260" width="190" height="110" as="geometry"/>
                </mxCell>
                <mxCell id="K8V55S-lqn8vu2vQLkye-33" value="&lt;b&gt;Title&lt;/b&gt;" style="rounded=0;whiteSpace=wrap;html=1;fillColor=#f5f5f5;strokeColor=#666666;fontColor=#333333;" parent="1" vertex="1">
                    <mxGeometry x="70" y="270" width="120" height="20" as="geometry"/>
                </mxCell>
                <mxCell id="K8V55S-lqn8vu2vQLkye-34" value="Show notes text..." style="rounded=0;whiteSpace=wrap;html=1;fillColor=#f5f5f5;strokeColor=#666666;fontColor=#333333;" parent="1" vertex="1">
                    <mxGeometry x="70" y="300" width="170" height="40" as="geometry"/>
                </mxCell>
                <mxCell id="K8V55S-lqn8vu2vQLkye-35" value="Show Date" style="rounded=0;whiteSpace=wrap;html=1;fillColor=#f5f5f5;strokeColor=#666666;fontColor=#333333;" parent="1" vertex="1">
                    <mxGeometry x="150" y="350" width="90" height="15" as="geometry"/>
                </mxCell>
                <mxCell id="K8V55S-lqn8vu2vQLkye-36" value="" style="dashed=0;aspect=fixed;verticalLabelPosition=bottom;verticalAlign=top;align=center;shape=mxgraph.gmdl.edit;strokeColor=none;fillColor=#737373;shadow=0;sketch=0;fontSize=30;" parent="1" vertex="1">
                    <mxGeometry x="214" y="262" width="14" height="14" as="geometry"/>
                </mxCell>
                <mxCell id="K8V55S-lqn8vu2vQLkye-37" value="" style="verticalLabelPosition=bottom;verticalAlign=top;html=1;shadow=0;dashed=0;strokeWidth=1;shape=mxgraph.ios.iDeleteIcon;fillColor=#e8878E;fillColor2=#BD1421;strokeColor=#ffffff;sketch=0;fontSize=30;" parent="1" vertex="1">
                    <mxGeometry x="230" y="262" width="15" height="15" as="geometry"/>
                </mxCell>
                <mxCell id="K8V55S-lqn8vu2vQLkye-38" value="" style="rounded=0;whiteSpace=wrap;html=1;fillColor=#f5f5f5;strokeColor=#666666;fontColor=#333333;" parent="1" vertex="1">
                    <mxGeometry x="60" y="390" width="190" height="110" as="geometry"/>
                </mxCell>
                <mxCell id="K8V55S-lqn8vu2vQLkye-39" value="&lt;b&gt;Title&lt;/b&gt;" style="rounded=0;whiteSpace=wrap;html=1;fillColor=#f5f5f5;strokeColor=#666666;fontColor=#333333;" parent="1" vertex="1">
                    <mxGeometry x="70" y="400" width="120" height="20" as="geometry"/>
                </mxCell>
                <mxCell id="K8V55S-lqn8vu2vQLkye-40" value="Show notes text..." style="rounded=0;whiteSpace=wrap;html=1;fillColor=#f5f5f5;strokeColor=#666666;fontColor=#333333;" parent="1" vertex="1">
                    <mxGeometry x="70" y="430" width="170" height="40" as="geometry"/>
                </mxCell>
                <mxCell id="K8V55S-lqn8vu2vQLkye-41" value="Show Date" style="rounded=0;whiteSpace=wrap;html=1;fillColor=#f5f5f5;strokeColor=#666666;fontColor=#333333;" parent="1" vertex="1">
                    <mxGeometry x="150" y="480" width="90" height="15" as="geometry"/>
                </mxCell>
                <mxCell id="K8V55S-lqn8vu2vQLkye-42" value="" style="dashed=0;aspect=fixed;verticalLabelPosition=bottom;verticalAlign=top;align=center;shape=mxgraph.gmdl.edit;strokeColor=none;fillColor=#737373;shadow=0;sketch=0;fontSize=30;" parent="1" vertex="1">
                    <mxGeometry x="214" y="392" width="14" height="14" as="geometry"/>
                </mxCell>
                <mxCell id="K8V55S-lqn8vu2vQLkye-43" value="" style="verticalLabelPosition=bottom;verticalAlign=top;html=1;shadow=0;dashed=0;strokeWidth=1;shape=mxgraph.ios.iDeleteIcon;fillColor=#e8878E;fillColor2=#BD1421;strokeColor=#ffffff;sketch=0;fontSize=30;" parent="1" vertex="1">
                    <mxGeometry x="230" y="392" width="15" height="15" as="geometry"/>
                </mxCell>
                <mxCell id="SbjOWZJ8PrtaTvn8_uMI-1" value="" style="dashed=0;aspect=fixed;verticalLabelPosition=bottom;verticalAlign=top;align=center;shape=mxgraph.gmdl.bookmark;strokeColor=none;fillColor=#737373;shadow=0;sketch=0;fontSize=33;fontColor=#000000;" vertex="1" parent="1">
                    <mxGeometry x="67" y="223" width="8.5" height="13.5" as="geometry"/>
                </mxCell>
                <mxCell id="SbjOWZJ8PrtaTvn8_uMI-2" value="" style="dashed=0;aspect=fixed;verticalLabelPosition=bottom;verticalAlign=top;align=center;shape=mxgraph.gmdl.bookmark;strokeColor=none;fillColor=#737373;shadow=0;sketch=0;fontSize=33;fontColor=#000000;" vertex="1" parent="1">
                    <mxGeometry x="67" y="353" width="8.5" height="13.5" as="geometry"/>
                </mxCell>
                <mxCell id="SbjOWZJ8PrtaTvn8_uMI-3" value="" style="dashed=0;aspect=fixed;verticalLabelPosition=bottom;verticalAlign=top;align=center;shape=mxgraph.gmdl.bookmark;strokeColor=none;fillColor=#737373;shadow=0;sketch=0;fontSize=33;fontColor=#000000;" vertex="1" parent="1">
                    <mxGeometry x="67" y="483" width="8.5" height="13.5" as="geometry"/>
                </mxCell>
                <mxCell id="SbjOWZJ8PrtaTvn8_uMI-4" value="" style="html=1;verticalLabelPosition=bottom;align=center;labelBackgroundColor=#ffffff;verticalAlign=top;strokeWidth=2;strokeColor=#0080F0;shadow=0;dashed=0;shape=mxgraph.ios7.icons.bookmark;fontSize=33;fontColor=#000000;fillColor=#FFFFFF;" vertex="1" parent="1">
                    <mxGeometry x="243" y="102" width="9" height="14" as="geometry"/>
                </mxCell>
                <mxCell id="SbjOWZJ8PrtaTvn8_uMI-6" value="&lt;span&gt;Notes Qty&lt;/span&gt;" style="rounded=0;whiteSpace=wrap;html=1;fontSize=12;fontColor=#000000;fillColor=#FFFFFF;" vertex="1" parent="1">
                    <mxGeometry x="60" y="99" width="60" height="20" as="geometry"/>
                </mxCell>
            </root>
        </mxGraphModel>
    </diagram>
    <diagram id="6XcR42PhSRtcYNlh0Pom" name="Page-2">
        <mxGraphModel dx="846" dy="597" grid="1" gridSize="10" guides="1" tooltips="1" connect="1" arrows="1" fold="1" page="1" pageScale="1" pageWidth="850" pageHeight="1100" math="0" shadow="0">
            <root>
                <mxCell id="zj6HZkZ3CWm45Ed8KYri-0"/>
                <mxCell id="zj6HZkZ3CWm45Ed8KYri-1" parent="zj6HZkZ3CWm45Ed8KYri-0"/>
                <mxCell id="27sCJ-PjAOOTTni41zT8-0" value="&lt;div&gt;&lt;div style=&quot;text-align: center&quot;&gt;&lt;b&gt;&lt;font style=&quot;font-size: 33px&quot;&gt;&lt;u&gt;&lt;i&gt;Note Keep&lt;/i&gt;&lt;/u&gt;&lt;/font&gt;&lt;/b&gt;&lt;br&gt;&lt;/div&gt;&lt;div style=&quot;text-align: center&quot;&gt;&lt;b&gt;&lt;font style=&quot;font-size: 33px&quot;&gt;&lt;u&gt;&lt;i&gt;&lt;br&gt;&lt;/i&gt;&lt;/u&gt;&lt;/font&gt;&lt;/b&gt;&lt;/div&gt;&lt;ul&gt;&lt;li&gt;&lt;b&gt;VERSION-01&lt;/b&gt;&lt;/li&gt;&lt;/ul&gt;&lt;/div&gt;&lt;ol&gt;&lt;li&gt;User should be able to write the text to maintain the notes.&lt;/li&gt;&lt;li&gt;Should be able to save the notes.&lt;/li&gt;&lt;li&gt;Should be able to display list of notes.&lt;/li&gt;&lt;li&gt;User should be able to edit the notes.&lt;/li&gt;&lt;/ol&gt;&lt;div&gt;&lt;br&gt;&lt;/div&gt;&lt;div&gt;&lt;ul&gt;&lt;li&gt;&lt;b&gt;VERSION-02&lt;/b&gt;&lt;/li&gt;&lt;/ul&gt;&lt;/div&gt;&lt;ol&gt;&lt;li&gt;Note should contain title.&lt;/li&gt;&lt;li&gt;Note should contain description.&lt;/li&gt;&lt;li&gt;Note should have Date.&lt;/li&gt;&lt;li&gt;User should be able to delete the notes.&lt;/li&gt;&lt;/ol&gt;&lt;div&gt;&lt;br&gt;&lt;/div&gt;&lt;div&gt;&lt;ul&gt;&lt;li&gt;&lt;b&gt;VERSION-03&lt;/b&gt;&lt;/li&gt;&lt;/ul&gt;&lt;/div&gt;&lt;ol&gt;&lt;li&gt;Add search button to search notes using keywords.&lt;/li&gt;&lt;li&gt;Add background color.&lt;/li&gt;&lt;li&gt;Add light / dark theme.&lt;/li&gt;&lt;li&gt;Add bookmark button.&lt;/li&gt;&lt;li&gt;User should be able to see all bookmarked note together.&lt;/li&gt;&lt;/ol&gt;" style="rounded=0;whiteSpace=wrap;html=1;fontColor=#000000;fillColor=#FFFFFF;align=left;" vertex="1" parent="zj6HZkZ3CWm45Ed8KYri-1">
                    <mxGeometry x="40" y="10" width="600" height="600" as="geometry"/>
                </mxCell>
            </root>
        </mxGraphModel>
    </diagram>
    <diagram id="ZD2_A1Wycugf2cCY3-U3" name="Page-3">
        <mxGraphModel dx="946" dy="667" grid="1" gridSize="10" guides="1" tooltips="1" connect="1" arrows="1" fold="1" page="1" pageScale="1" pageWidth="850" pageHeight="1100" math="0" shadow="0">
            <root>
                <mxCell id="Ve7Tf8QXoKKr7nbXU7B0-0"/>
                <mxCell id="Ve7Tf8QXoKKr7nbXU7B0-1" parent="Ve7Tf8QXoKKr7nbXU7B0-0"/>
                <mxCell id="Ve7Tf8QXoKKr7nbXU7B0-2" value="&lt;ul&gt;&lt;ul&gt;&lt;ul&gt;&lt;li&gt;This section will contain the heading of the notes.&lt;/li&gt;&lt;li&gt;After clicking the button, heading should be display at the section - 4 at title box.&lt;/li&gt;&lt;li&gt;The data should save inside the LocalStorage.&lt;/li&gt;&lt;/ul&gt;&lt;/ul&gt;&lt;/ul&gt;" style="rounded=0;whiteSpace=wrap;html=1;fontSize=15;align=left;fillColor=#a20025;strokeColor=#6F0000;fontColor=#ffffff;" vertex="1" parent="Ve7Tf8QXoKKr7nbXU7B0-1">
                    <mxGeometry x="40" y="690" width="760" height="80" as="geometry"/>
                </mxCell>
                <mxCell id="Ve7Tf8QXoKKr7nbXU7B0-3" value="&lt;font color=&quot;#000000&quot;&gt;1&lt;/font&gt;" style="ellipse;whiteSpace=wrap;html=1;aspect=fixed;fontSize=20;fillColor=#e1d5e7;strokeColor=#9673a6;" vertex="1" parent="Ve7Tf8QXoKKr7nbXU7B0-1">
                    <mxGeometry x="50" y="710" width="40" height="40" as="geometry"/>
                </mxCell>
                <mxCell id="Ve7Tf8QXoKKr7nbXU7B0-4" value="&lt;ul&gt;&lt;ul&gt;&lt;ul&gt;&lt;li&gt;This section will contain the content of notes.&lt;/li&gt;&lt;li&gt;After clicking the button, content should be display at the section - 4 in show notes area.&lt;/li&gt;&lt;li&gt;The data should save inside the LocalStorage.&lt;/li&gt;&lt;/ul&gt;&lt;/ul&gt;&lt;/ul&gt;" style="rounded=0;whiteSpace=wrap;html=1;fontSize=15;align=left;fillColor=#a20025;strokeColor=#6F0000;fontColor=#ffffff;" vertex="1" parent="Ve7Tf8QXoKKr7nbXU7B0-1">
                    <mxGeometry x="40" y="784" width="760" height="80" as="geometry"/>
                </mxCell>
                <mxCell id="Ve7Tf8QXoKKr7nbXU7B0-5" value="&lt;font color=&quot;#000000&quot;&gt;2&lt;/font&gt;" style="ellipse;whiteSpace=wrap;html=1;aspect=fixed;fontSize=20;fillColor=#e1d5e7;strokeColor=#9673a6;" vertex="1" parent="Ve7Tf8QXoKKr7nbXU7B0-1">
                    <mxGeometry x="50" y="800" width="40" height="40" as="geometry"/>
                </mxCell>
                <mxCell id="Ve7Tf8QXoKKr7nbXU7B0-6" value="&lt;ul&gt;&lt;ul&gt;&lt;ul&gt;&lt;li&gt;This section should be a button.&lt;/li&gt;&lt;li&gt;onclick, the button will save the data from the LocalStorage.&lt;/li&gt;&lt;/ul&gt;&lt;/ul&gt;&lt;/ul&gt;" style="rounded=0;whiteSpace=wrap;html=1;fontSize=15;align=left;fillColor=#a20025;strokeColor=#6F0000;fontColor=#ffffff;" vertex="1" parent="Ve7Tf8QXoKKr7nbXU7B0-1">
                    <mxGeometry x="40" y="877" width="760" height="60" as="geometry"/>
                </mxCell>
                <mxCell id="Ve7Tf8QXoKKr7nbXU7B0-7" value="&lt;font color=&quot;#000000&quot;&gt;3&lt;/font&gt;" style="ellipse;whiteSpace=wrap;html=1;aspect=fixed;fontSize=20;fillColor=#e1d5e7;strokeColor=#9673a6;" vertex="1" parent="Ve7Tf8QXoKKr7nbXU7B0-1">
                    <mxGeometry x="50" y="886" width="40" height="40" as="geometry"/>
                </mxCell>
                <mxCell id="Ve7Tf8QXoKKr7nbXU7B0-8" value="&lt;ul&gt;&lt;ul&gt;&lt;ul&gt;&lt;li&gt;This section should contain- Notes Title, Notes &amp;amp; Current Date.&lt;/li&gt;&lt;li&gt;Derived from the LocalStorage after button click.&lt;/li&gt;&lt;/ul&gt;&lt;/ul&gt;&lt;/ul&gt;" style="rounded=0;whiteSpace=wrap;html=1;fontSize=15;align=left;fillColor=#a20025;strokeColor=#6F0000;fontColor=#ffffff;" vertex="1" parent="Ve7Tf8QXoKKr7nbXU7B0-1">
                    <mxGeometry x="40" y="953" width="760" height="60" as="geometry"/>
                </mxCell>
                <mxCell id="Ve7Tf8QXoKKr7nbXU7B0-9" value="&lt;font color=&quot;#000000&quot;&gt;4&lt;/font&gt;" style="ellipse;whiteSpace=wrap;html=1;aspect=fixed;fontSize=20;fillColor=#e1d5e7;strokeColor=#9673a6;" vertex="1" parent="Ve7Tf8QXoKKr7nbXU7B0-1">
                    <mxGeometry x="50" y="960" width="40" height="40" as="geometry"/>
                </mxCell>
                <mxCell id="Ve7Tf8QXoKKr7nbXU7B0-10" value="&lt;ul&gt;&lt;ul&gt;&lt;ul&gt;&lt;li&gt;This section will be search box.&lt;/li&gt;&lt;li&gt;User be able to search the respective saved notes by keywords matching.&lt;/li&gt;&lt;/ul&gt;&lt;/ul&gt;&lt;/ul&gt;" style="rounded=0;whiteSpace=wrap;html=1;fontSize=15;align=left;fillColor=#a20025;strokeColor=#6F0000;fontColor=#ffffff;" vertex="1" parent="Ve7Tf8QXoKKr7nbXU7B0-1">
                    <mxGeometry x="40" y="1030" width="760" height="60" as="geometry"/>
                </mxCell>
                <mxCell id="Ve7Tf8QXoKKr7nbXU7B0-11" value="&lt;font color=&quot;#000000&quot;&gt;5&lt;/font&gt;" style="ellipse;whiteSpace=wrap;html=1;aspect=fixed;fontSize=20;fillColor=#e1d5e7;strokeColor=#9673a6;" vertex="1" parent="Ve7Tf8QXoKKr7nbXU7B0-1">
                    <mxGeometry x="50" y="1040" width="40" height="40" as="geometry"/>
                </mxCell>
            </root>
        </mxGraphModel>
    </diagram>
</mxfile>